<svg width="434" height="216" viewBox="0 0 434 216" fill="none" xmlns="http://www.w3.org/2000/svg">
<path d="M132.931 51.9674L105.323 44.5697C96.8695 42.3046 87.9172 43.5206 80.3344 47.8985L52.2269 64.1264C35.1229 74.0014 30.3035 91.9874 40.1785 109.091L73.0952 166.105C82.9702 183.209 100.956 188.028 118.06 178.153L163.671 151.82C180.775 141.945 185.594 123.959 175.719 106.855L152.908 67.3445C148.497 59.7047 141.295 54.2084 132.931 51.9674Z" stroke="#F1930F" stroke-width="7" stroke-linecap="round" stroke-linejoin="round"/>
<path d="M100.246 127.548L95.4266 145.534L113.413 150.353" stroke="#F1930F" stroke-width="7" stroke-linecap="round" stroke-linejoin="round"/>
<path d="M128.753 111.09L146.739 115.909L141.919 133.895" stroke="#F1930F" stroke-width="7" stroke-linecap="round" stroke-linejoin="round"/>
<path d="M152.991 107.389L185.907 164.402C195.782 181.506 210.747 188.07 230.872 176.45L270.782 153.409C290.565 141.986 292.705 125.548 282.83 108.444L278.979 101.773C277.234 98.7512 274.358 96.5348 270.974 95.6762L263.509 93.6761C260.092 92.7605 257.249 90.601 255.504 87.5793L248.329 75.1504C246.518 72.0147 247.602 67.9678 250.738 66.1574C253.874 64.347 254.958 60.3002 253.148 57.1644L249.856 51.4631C239.981 34.3591 224.675 27.9927 204.891 39.4148L164.982 62.4564C144.913 74.0431 143.116 90.2845 152.991 107.389Z" stroke="#F1930F" stroke-width="7" stroke-linecap="round" stroke-linejoin="round"/>
<path d="M227.866 177.958L218.033 161.058C214.379 154.729 216.523 146.726 222.852 143.072L245.714 129.872C251.986 126.251 259.989 128.396 263.667 134.635L273.68 151.583" stroke="#F1930F" stroke-width="7" stroke-linecap="round" stroke-linejoin="round"/>
<path d="M177.258 77.7941L168.03 61.1527" stroke="#F1930F" stroke-width="7" stroke-linecap="round" stroke-linejoin="round"/>
<path d="M194.362 67.9191L185.134 51.2777" stroke="#F1930F" stroke-width="7" stroke-linecap="round" stroke-linejoin="round"/>
<path d="M211.367 57.8731L202.172 41.2887" stroke="#F1930F" stroke-width="7" stroke-linecap="round" stroke-linejoin="round"/>
<path d="M350.931 51.9675L323.323 44.5699C314.87 42.3048 305.884 43.4635 298.302 47.8414L270.194 64.0693C253.09 73.9443 248.271 91.9303 258.146 109.034L291.062 166.048C300.937 183.152 318.923 187.971 336.027 178.096L381.638 151.763C398.742 141.888 403.561 123.902 393.686 106.798L370.875 67.2874C366.497 59.7046 359.295 54.2085 350.931 51.9675Z" stroke="#F1930F" stroke-width="7" stroke-linecap="round" stroke-linejoin="round"/>
<path d="M335.909 151.558L358.715 138.391C368.122 132.96 371.375 120.82 365.944 111.412L356.069 94.3083C350.637 84.9011 338.497 81.6481 329.09 87.0793L306.284 100.246C296.877 105.677 293.624 117.818 299.055 127.225L308.93 144.329C314.361 153.736 326.502 156.989 335.909 151.558Z" stroke="#F1930F" stroke-width="7" stroke-linecap="round" stroke-linejoin="round"/>
<path d="M317.687 93.6627L347.312 144.975" stroke="#F1930F" stroke-width="7" stroke-linecap="round" stroke-linejoin="round"/>
<path d="M306.843 134.131L358.155 104.506" stroke="#F1930F" stroke-width="7" stroke-linecap="round" stroke-linejoin="round"/>
</svg>
