<svg width="24" height="25" viewBox="0 0 24 25" fill="none" xmlns="http://www.w3.org/2000/svg">
<path d="M20.875 2.78125H3.09375C2.46875 2.78125 2 3.28125 2 3.875V21.6562C2 22.2812 2.5 22.75 3.09375 22.75H12.6875V15H10.0625V11.9688H12.6562V9.74999C12.6562 7.15625 14.2187 5.75 16.5312 5.75C17.625 5.75 18.5937 5.84375 18.875 5.875V8.5625H17.2812C16.0312 8.5625 15.7812 9.15625 15.7812 10.0312V11.9688H18.7812L18.4062 15.0312H15.8125V22.7812H20.9062C21.5312 22.7812 22 22.2812 22 21.6875V3.90625C22 3.25 21.5 2.78125 20.875 2.78125Z" fill="white"/>
</svg>
