<svg width="24" height="24" viewBox="0 0 24 24" fill="none" xmlns="http://www.w3.org/2000/svg">
<path d="M2 9L3.5 4L5.5 2.5L10 2H13.5L17.5 2.5L20.5 3.5L22 7.5V14V18L20.5 20.5L15.5 22H8.5L3.5 20.5L2 17L2.5 13.5L2 9Z" fill="#F1930F"/>
<path d="M9 22H15C20 22 22 20 22 15V9C22 4 20 2 15 2H9C4 2 2 4 2 9V15C2 20 4 22 9 22Z" stroke="#181818" stroke-width="1.5" stroke-linecap="round" stroke-linejoin="round"/>
<path d="M2.66992 18.9501L7.59992 15.6401C8.38992 15.1101 9.52992 15.1701 10.2399 15.7801L10.5699 16.0701C11.3499 16.7401 12.6099 16.7401 13.3899 16.0701L17.5499 12.5001C18.3299 11.8301 19.5899 11.8301 20.3699 12.5001L21.9999 13.9001" stroke="#181818" stroke-width="1.5" stroke-linecap="round" stroke-linejoin="round"/>
<path d="M9.01562 9.02734V11.2812C8.92708 11.388 8.79036 11.5039 8.60547 11.6289C8.42057 11.7513 8.18229 11.8568 7.89062 11.9453C7.59896 12.0339 7.24609 12.0781 6.83203 12.0781C6.46484 12.0781 6.13021 12.0182 5.82812 11.8984C5.52604 11.776 5.26562 11.5977 5.04688 11.3633C4.83073 11.1289 4.66406 10.8424 4.54688 10.5039C4.42969 10.1628 4.37109 9.77344 4.37109 9.33594V8.98047C4.37109 8.54297 4.42708 8.15365 4.53906 7.8125C4.65365 7.47135 4.81641 7.18359 5.02734 6.94922C5.23828 6.71484 5.48958 6.53646 5.78125 6.41406C6.07292 6.29167 6.39714 6.23047 6.75391 6.23047C7.2487 6.23047 7.65495 6.3112 7.97266 6.47266C8.29036 6.63151 8.53255 6.85286 8.69922 7.13672C8.86849 7.41797 8.97266 7.74089 9.01172 8.10547H7.875C7.84635 7.91276 7.79167 7.74479 7.71094 7.60156C7.63021 7.45833 7.51432 7.34635 7.36328 7.26562C7.21484 7.1849 7.02214 7.14453 6.78516 7.14453C6.58984 7.14453 6.41536 7.1849 6.26172 7.26562C6.11068 7.34375 5.98307 7.45964 5.87891 7.61328C5.77474 7.76693 5.69531 7.95703 5.64062 8.18359C5.58594 8.41016 5.55859 8.67318 5.55859 8.97266V9.33594C5.55859 9.63281 5.58724 9.89583 5.64453 10.125C5.70182 10.3516 5.78646 10.543 5.89844 10.6992C6.01302 10.8529 6.15365 10.9688 6.32031 11.0469C6.48698 11.125 6.68099 11.1641 6.90234 11.1641C7.08724 11.1641 7.24089 11.1484 7.36328 11.1172C7.48828 11.0859 7.58854 11.0482 7.66406 11.0039C7.74219 10.957 7.80208 10.9128 7.84375 10.8711V9.86328H6.77344V9.02734H9.01562ZM11.207 6.3125V12H10.0391V6.3125H11.207ZM13.4766 6.3125V12H12.3047V6.3125H13.4766ZM15.7422 8.74219V9.65625H13.1562V8.74219H15.7422ZM16.0156 6.3125V7.23047H13.1562V6.3125H16.0156Z" fill="#181818"/>
</svg>
