<svg width="24" height="25" viewBox="0 0 24 25" fill="none" xmlns="http://www.w3.org/2000/svg">
<path fill-rule="evenodd" clip-rule="evenodd" d="M11.9969 2.7876C9.28187 2.7876 8.94143 2.79911 7.87516 2.84776C6.81111 2.89629 6.0844 3.0653 5.44853 3.31244C4.79115 3.56787 4.23365 3.9097 3.67786 4.46545C3.1221 5.02125 2.78028 5.57875 2.52484 6.23613C2.2777 6.872 2.10869 7.59871 2.06016 8.66276C2.01151 9.72903 2 10.0695 2 12.7845C2 15.4994 2.01151 15.8399 2.06016 16.9062C2.10869 17.9702 2.2777 18.6969 2.52484 19.3328C2.78028 19.9902 3.1221 20.5477 3.67786 21.1035C4.23365 21.6592 4.79115 22.001 5.44853 22.2565C6.0844 22.5036 6.81111 22.6726 7.87516 22.7211C8.94143 22.7698 9.28187 22.7813 11.9969 22.7813C14.7118 22.7813 15.0523 22.7698 16.1185 22.7211C17.1826 22.6726 17.9093 22.5036 18.5452 22.2565C19.2025 22.001 19.76 21.6592 20.3158 21.1035C20.8716 20.5477 21.2134 19.9902 21.4689 19.3328C21.716 18.6969 21.885 17.9702 21.9335 16.9062C21.9822 15.8399 21.9937 15.4994 21.9937 12.7845C21.9937 10.0695 21.9822 9.72903 21.9335 8.66276C21.885 7.59871 21.716 6.872 21.4689 6.23613C21.2134 5.57875 20.8716 5.02125 20.3158 4.46545C19.76 3.9097 19.2025 3.56787 18.5452 3.31244C17.9093 3.0653 17.1826 2.89629 16.1185 2.84776C15.0523 2.79911 14.7118 2.7876 11.9969 2.7876ZM11.9969 4.58883C14.6661 4.58883 14.9823 4.59903 16.0364 4.64712C17.0111 4.69157 17.5404 4.85442 17.8927 4.99133C18.3593 5.17268 18.6923 5.3893 19.0421 5.73914C19.392 6.08895 19.6086 6.42196 19.79 6.88859C19.9269 7.24085 20.0897 7.77018 20.1342 8.74486C20.1823 9.79899 20.1925 10.1152 20.1925 12.7845C20.1925 15.4537 20.1823 15.7699 20.1342 16.824C20.0897 17.7987 19.9269 18.3281 19.79 18.6803C19.6086 19.1469 19.392 19.48 19.0421 19.8298C18.6923 20.1796 18.3593 20.3962 17.8927 20.5776C17.5404 20.7145 17.0111 20.8773 16.0364 20.9218C14.9825 20.9699 14.6663 20.9801 11.9969 20.9801C9.32738 20.9801 9.01127 20.9699 7.95726 20.9218C6.98258 20.8773 6.45325 20.7145 6.10099 20.5776C5.63437 20.3962 5.30135 20.1796 4.95155 19.8298C4.60175 19.48 4.38508 19.1469 4.20373 18.6803C4.06683 18.3281 3.90397 17.7987 3.85952 16.824C3.81143 15.7699 3.80123 15.4537 3.80123 12.7845C3.80123 10.1152 3.81143 9.79899 3.85952 8.74486C3.90397 7.77018 4.06683 7.24085 4.20373 6.88859C4.38508 6.42196 4.60171 6.08895 4.95155 5.73914C5.30135 5.3893 5.63437 5.17268 6.10099 4.99133C6.45325 4.85442 6.98258 4.69157 7.95726 4.64712C9.01139 4.59903 9.32758 4.58883 11.9969 4.58883Z" fill="white"/>
<path fill-rule="evenodd" clip-rule="evenodd" d="M11.9968 16.1167C10.1564 16.1167 8.66451 14.6247 8.66451 12.7844C8.66451 10.944 10.1564 9.45211 11.9968 9.45211C13.8372 9.45211 15.3291 10.944 15.3291 12.7844C15.3291 14.6247 13.8372 16.1167 11.9968 16.1167ZM11.9968 7.65088C9.16161 7.65088 6.86328 9.94921 6.86328 12.7844C6.86328 15.6196 9.16161 17.9179 11.9968 17.9179C14.832 17.9179 17.1303 15.6196 17.1303 12.7844C17.1303 9.94921 14.832 7.65088 11.9968 7.65088Z" fill="white"/>
<path fill-rule="evenodd" clip-rule="evenodd" d="M18.5326 7.44806C18.5326 8.1106 17.9955 8.64766 17.3329 8.64766C16.6704 8.64766 16.1333 8.1106 16.1333 7.44806C16.1333 6.78552 16.6704 6.24841 17.3329 6.24841C17.9955 6.24841 18.5326 6.78552 18.5326 7.44806Z" fill="white"/>
</svg>
