<svg width="20" height="20" viewBox="0 0 20 20" fill="none" xmlns="http://www.w3.org/2000/svg">
<g id="microscope">
<g id="GroupIcon">
<path id="Vector" d="M12.5249 8.97509L17.2416 5.81677C17.7166 5.5001 17.8416 4.8501 17.5249 4.38344L16.0083 2.12508C15.6916 1.65008 15.0416 1.52509 14.5749 1.84175L9.85828 5.00009L12.5249 8.97509Z" stroke="#F1930F" stroke-linecap="round" stroke-linejoin="round"/>
<path id="Vector_2" d="M10.1448 5.39936L6.16345 8.06592L8.29671 11.251L12.2781 8.58448L10.1448 5.39936Z" stroke="#F1930F" stroke-linecap="round" stroke-linejoin="round"/>
<path id="Vector_3" d="M4.85831 13.2499L8.14997 11.0499L6.28331 8.2666L2.99164 10.4666C2.6083 10.7249 2.50831 11.2416 2.76664 11.6249L3.7083 13.0249C3.9583 13.3999 4.47497 13.4999 4.85831 13.2499Z" stroke="#F1930F" stroke-linecap="round" stroke-linejoin="round"/>
</g>
<path id="Vector_4" d="M10.0417 10.1665L6.29999 18.3332" stroke="#F1930F" stroke-linecap="round" stroke-linejoin="round"/>
<path id="Vector_5" d="M10 10.1665L13.7 18.3332" stroke="#F1930F" stroke-linecap="round" stroke-linejoin="round"/>
</g>
</svg>
