<svg width="24" height="24" viewBox="0 0 18 17" fill="none" xmlns="http://www.w3.org/2000/svg">
<path d="M14.2843 6.80004C14.2843 3.96671 13.151 2.83337 10.3177 2.83337H6.91766C4.08432 2.83337 2.95099 3.96671 2.95099 6.80004V10.2C2.95099 13.0334 4.08432 14.1667 6.91766 14.1667" stroke="#F9A938" stroke-linecap="round" stroke-linejoin="round"/>
<path d="M11.6989 5.66671C11.3093 5.17087 10.6577 4.95837 9.68016 4.95837H7.55516C5.78432 4.95837 5.07599 5.66671 5.07599 7.43754V9.56254C5.07599 10.54 5.28849 11.1917 5.77724 11.5813" stroke="#F9A938" stroke-linecap="round" stroke-linejoin="round"/>
<path d="M5.79144 2.83329V1.41663" stroke="#F9A938" stroke-linecap="round" stroke-linejoin="round"/>
<path d="M8.61768 2.83329V1.41663" stroke="#F9A938" stroke-linecap="round" stroke-linejoin="round"/>
<path d="M11.451 2.83329V1.41663" stroke="#F9A938" stroke-linecap="round" stroke-linejoin="round"/>
<path d="M14.2844 5.66663H15.701" stroke="#F9A938" stroke-linecap="round" stroke-linejoin="round"/>
<path d="M5.79144 14.1666V15.5833" stroke="#F9A938" stroke-linecap="round" stroke-linejoin="round"/>
<path d="M1.53436 5.66663H2.95103" stroke="#F9A938" stroke-linecap="round" stroke-linejoin="round"/>
<path d="M1.53436 8.5H2.95103" stroke="#F9A938" stroke-linecap="round" stroke-linejoin="round"/>
<path d="M1.53436 11.3334H2.95103" stroke="#F9A938" stroke-linecap="round" stroke-linejoin="round"/>
<path d="M11.9539 13.1679C12.576 13.1679 13.0802 12.6637 13.0802 12.0417C13.0802 11.4196 12.576 10.9154 11.9539 10.9154C11.3319 10.9154 10.8277 11.4196 10.8277 12.0417C10.8277 12.6637 11.3319 13.1679 11.9539 13.1679Z" stroke="#F9A938" stroke-miterlimit="10" stroke-linecap="round" stroke-linejoin="round"/>
<path d="M8.19977 12.3675V11.7087C8.19977 11.3191 8.51852 11.0004 8.9081 11.0004C9.5881 11.0004 9.86435 10.5187 9.52435 9.93079C9.32602 9.59079 9.44643 9.15162 9.78643 8.96037L10.431 8.58496C10.7285 8.40787 11.111 8.51412 11.2881 8.81162L11.3306 8.88246C11.6706 9.47037 12.2231 9.47037 12.5631 8.88246L12.6056 8.81162C12.7827 8.51412 13.1652 8.41496 13.4627 8.58496L14.1073 8.96037C14.4473 9.15871 14.5677 9.59079 14.3694 9.93079C14.0294 10.5187 14.3056 11.0004 14.9856 11.0004C15.3752 11.0004 15.6939 11.3191 15.6939 11.7087V12.3675C15.6939 12.757 15.3752 13.0758 14.9856 13.0758C14.3056 13.0758 14.0294 13.5575 14.3694 14.1454C14.5677 14.4854 14.4473 14.9245 14.1073 15.1158L13.4627 15.4912C13.1652 15.6683 12.7827 15.562 12.6056 15.2645L12.5631 15.1937C12.2231 14.6058 11.6706 14.6058 11.3306 15.1937L11.2881 15.2645C11.111 15.562 10.7285 15.6612 10.431 15.4912L9.78643 15.1158C9.44643 14.9175 9.32602 14.4854 9.52435 14.1454C9.86435 13.5575 9.5881 13.0758 8.9081 13.0758C8.51852 13.0829 8.19977 12.7641 8.19977 12.3675Z" stroke="#F9A938" stroke-miterlimit="10" stroke-linecap="round" stroke-linejoin="round"/>
</svg>
