<svg width="24" height="25" viewBox="0 0 24 25" fill="none" xmlns="http://www.w3.org/2000/svg">
<path d="M8.2177 21.0788C15.798 21.0788 19.9327 14.8141 19.9327 9.36386V8.83136C20.7362 8.24216 21.435 7.52214 22 6.70137C21.2567 7.0436 20.4637 7.26562 19.6507 7.35916C20.5139 6.84289 21.1597 6.0301 21.4675 5.07255C20.6598 5.54308 19.7822 5.88146 18.8677 6.0749C17.3053 4.42616 14.7069 4.34234 13.0415 5.88696C11.9701 6.88347 11.5157 8.37819 11.8512 9.80239C8.54594 9.63897 5.46574 8.07894 3.37823 5.51108C2.28095 7.38914 2.84519 9.79747 4.66249 10.9926C4.00661 10.967 3.36464 10.7958 2.78309 10.4915V10.5541C2.78257 12.5105 4.15628 14.1982 6.07204 14.5948C5.46884 14.7563 4.83671 14.7777 4.22396 14.6575C4.76475 16.335 6.31437 17.4815 8.07674 17.5079C6.62377 18.6561 4.82287 19.2748 2.97103 19.262C2.65779 19.262 2.31323 19.2307 2 19.1994C3.84433 20.4325 6.0148 21.0869 8.23336 21.0788" fill="white"/>
</svg>
