<svg width="65" height="65" viewBox="0 0 65 65" fill="none" xmlns="http://www.w3.org/2000/svg">
<circle cx="32.5" cy="32.5" r="31.5" stroke="#F1930F" stroke-width="2" stroke-dasharray="13.5 15"/>
<path d="M32.235 35.4509C34.4335 35.4509 36.2158 33.6686 36.2158 31.4701C36.2158 29.2715 34.4335 27.4893 32.235 27.4893C30.0364 27.4893 28.2542 29.2715 28.2542 31.4701C28.2542 33.6686 30.0364 35.4509 32.235 35.4509Z" stroke="white" stroke-width="1.5" stroke-linecap="round" stroke-linejoin="round"/>
<path d="M39.5876 44.6166C39.5876 41.3157 36.3009 38.624 32.2351 38.624C28.1692 38.624 24.8826 41.3016 24.8826 44.6166" stroke="white" stroke-width="1.5" stroke-linecap="round" stroke-linejoin="round"/>
<path d="M45.7499 33.7083C45.7499 41.1458 39.7291 47.1667 32.2916 47.1667C24.8541 47.1667 18.8333 41.1458 18.8333 33.7083C18.8333 26.2708 24.8541 20.25 32.2916 20.25C34.1474 20.25 35.9183 20.6183 37.5333 21.2983C37.3491 21.865 37.2499 22.46 37.2499 23.0833C37.2499 24.1458 37.5474 25.1517 38.0716 26.0017C38.3549 26.4833 38.7233 26.9225 39.1483 27.2908C40.1399 28.1975 41.4574 28.75 42.9166 28.75C43.5399 28.75 44.1349 28.6508 44.6874 28.4525C45.3674 30.0675 45.7499 31.8525 45.7499 33.7083Z" stroke="white" stroke-width="1.5" stroke-linecap="round" stroke-linejoin="round"/>
<path d="M48.5833 23.0832C48.5833 23.5365 48.5267 23.9757 48.4133 24.4007C48.2858 24.9673 48.0592 25.5198 47.7617 26.0015C47.0817 27.149 45.9908 28.0415 44.6875 28.4523C44.135 28.6506 43.54 28.7498 42.9167 28.7498C41.4575 28.7498 40.14 28.1973 39.1483 27.2906C38.7233 26.9223 38.355 26.4832 38.0717 26.0015C37.5475 25.1515 37.25 24.1457 37.25 23.0832C37.25 22.4598 37.3492 21.8648 37.5333 21.2982C37.8025 20.4765 38.2558 19.7399 38.8508 19.1307C39.885 18.0682 41.33 17.4165 42.9167 17.4165C44.5883 17.4165 46.1042 18.139 47.1242 19.3007C48.0308 20.3065 48.5833 21.6382 48.5833 23.0832Z" stroke="white" stroke-width="1.5" stroke-miterlimit="10" stroke-linecap="round" stroke-linejoin="round"/>
<path d="M45.0276 23.0552H40.8059" stroke="white" stroke-width="1.5" stroke-miterlimit="10" stroke-linecap="round" stroke-linejoin="round"/>
<path d="M42.9167 20.9868V25.2226" stroke="white" stroke-width="1.5" stroke-miterlimit="10" stroke-linecap="round" stroke-linejoin="round"/>
</svg>
