<svg width="68" height="66" viewBox="0 0 68 66" fill="none" xmlns="http://www.w3.org/2000/svg">
<rect x="0.5" y="6.5" width="59" height="59" rx="8.5" fill="white" stroke="black" stroke-dasharray="5 5"/>
<path d="M24.44 19H35.55C39.11 19 40 19.89 40 23.44V29.77C40 33.33 39.11 34.21 35.56 34.21H24.44C20.89 34.22 20 33.33 20 29.78V23.44C20 19.89 20.89 19 24.44 19Z" stroke="#232323" stroke-width="1.5" stroke-linecap="round" stroke-linejoin="round"/>
<path d="M30 34.22V39" stroke="#232323" stroke-width="1.5" stroke-linecap="round" stroke-linejoin="round"/>
<path d="M20 30H40" stroke="#232323" stroke-width="1.5" stroke-linecap="round" stroke-linejoin="round"/>
<path d="M25.5 39H34.5" stroke="#232323" stroke-width="1.5" stroke-linecap="round" stroke-linejoin="round"/>
<ellipse cx="56.6248" cy="10" rx="10.6248" ry="10" fill="#FF652B"/>
<path d="M62.8333 10.8317H57.8333V15.8317H56.1667V10.8317H51.1667V9.16499H56.1667V4.16499H57.8333V9.16499H62.8333V10.8317Z" fill="white"/>
<path d="M7.83789 48.8887V43.4688H9.57812V48.9531C9.57812 49.6289 9.73047 50.1133 10.0352 50.4062C10.3438 50.6953 10.75 50.8398 11.2539 50.8398C11.7578 50.8398 12.1621 50.6953 12.4668 50.4062C12.7715 50.1133 12.9238 49.6289 12.9238 48.9531V43.4688H14.6172V48.8887C14.6172 50.0098 14.291 50.8379 13.6387 51.373C12.9863 51.9082 12.1836 52.1758 11.2305 52.1758C10.2773 52.1758 9.47266 51.9082 8.81641 51.373C8.16406 50.8379 7.83789 50.0098 7.83789 48.8887ZM16.3984 52V43.4688H19.6445C20.6641 43.4688 21.4492 43.709 22 44.1895C22.5508 44.6699 22.8262 45.3418 22.8262 46.2051C22.8262 47.0684 22.5508 47.7461 22 48.2383C21.4531 48.7266 20.668 48.9707 19.6445 48.9707H18.1387V52H16.3984ZM18.1387 47.6758H19.5332C20.1113 47.6758 20.5137 47.543 20.7402 47.2773C20.9668 47.0078 21.0801 46.6523 21.0801 46.2109C21.0801 45.7695 20.9668 45.418 20.7402 45.1562C20.5137 44.8945 20.1113 44.7637 19.5332 44.7637H18.1387V47.6758ZM24.0742 52V43.4688H25.8145V50.6934H29.6992V52H24.0742ZM30.3906 47.9922V47.4766C30.3906 46.1289 30.752 45.0957 31.4746 44.377C32.2012 43.6543 33.1348 43.293 34.2754 43.293C35.4199 43.293 36.3555 43.6543 37.082 44.377C37.8125 45.0957 38.1777 46.1289 38.1777 47.4766V47.9922C38.1777 49.3398 37.8125 50.375 37.082 51.0977C36.3555 51.8164 35.4199 52.1758 34.2754 52.1758C33.1348 52.1758 32.2012 51.8164 31.4746 51.0977C30.752 50.375 30.3906 49.3398 30.3906 47.9922ZM32.1777 48.1035C32.1777 48.998 32.3672 49.6777 32.7461 50.1426C33.1289 50.6074 33.6406 50.8398 34.2812 50.8398C34.9219 50.8398 35.4336 50.6074 35.8164 50.1426C36.1992 49.6777 36.3906 48.998 36.3906 48.1035V47.3711C36.3906 46.4727 36.1992 45.791 35.8164 45.3262C35.4336 44.8613 34.9199 44.6289 34.2754 44.6289C33.6387 44.6289 33.1289 44.8613 32.7461 45.3262C32.3672 45.791 32.1777 46.4727 32.1777 47.3711V48.1035ZM38.5527 52L41.7344 43.4277H43.5859L46.8145 52H44.9395L42.7891 45.9297C42.7383 45.793 42.6973 45.6621 42.666 45.5371C42.6348 45.4121 42.6055 45.2852 42.5781 45.1562H42.5254C42.502 45.2852 42.4727 45.4141 42.4375 45.543C42.4062 45.668 42.3672 45.7969 42.3203 45.9297L40.1641 52H38.5527ZM40.2578 50.0723L40.6797 48.7891H44.541L44.9688 50.0781L40.2578 50.0723ZM47.6406 52V43.4688H50.5293C51.7012 43.4688 52.6816 43.8242 53.4707 44.5352C54.2637 45.2461 54.6602 46.2266 54.6602 47.4766V47.9922C54.6602 49.2422 54.2637 50.2227 53.4707 50.9336C52.6816 51.6445 51.7012 52 50.5293 52H47.6406ZM49.375 50.7109H50.5117C51.2227 50.7109 51.7949 50.4805 52.2285 50.0195C52.6621 49.5547 52.8789 48.8867 52.8789 48.0156V47.4531C52.8789 46.582 52.6621 45.916 52.2285 45.4551C51.7949 44.9941 51.2227 44.7637 50.5117 44.7637H49.375V50.7109Z" fill="#F5650C"/>
</svg>
