<svg width="24" height="25" viewBox="0 0 24 25" fill="none" xmlns="http://www.w3.org/2000/svg">
<path fill-rule="evenodd" clip-rule="evenodd" d="M21.3766 4.88604C22.4093 5.16382 23.2225 5.98227 23.4985 7.02163C24 8.90536 24 12.8357 24 12.8357C24 12.8357 24 16.766 23.4985 18.65C23.2225 19.6892 22.4093 20.5077 21.3766 20.7856C19.505 21.2903 12 21.2903 12 21.2903C12 21.2903 4.49496 21.2903 2.62336 20.7856C1.59082 20.5077 0.777545 19.6892 0.501545 18.65C0 16.766 0 12.8357 0 12.8357C0 12.8357 0 8.90536 0.501545 7.02163C0.777545 5.98227 1.59082 5.16382 2.62336 4.88604C4.49496 4.38123 12 4.38123 12 4.38123C12 4.38123 19.505 4.38123 21.3766 4.88604ZM15.8182 12.8358L9.54551 16.4042V9.26721L15.8182 12.8358Z" fill="white"/>
</svg>
