<svg width="512" height="512" viewBox="0 0 512 512" fill="none" xmlns="http://www.w3.org/2000/svg">
<g clip-path="url(#clip0_676_387)">
<rect width="512" height="512" fill="#232323"/>
<circle cx="256" cy="256" r="256" fill="#232323"/>
<path d="M174.672 185.024L236.672 193.524L266.672 177.024L330.172 193.524L376.172 219.024L385.672 274.524L369.672 339.524L301.672 361.524L244.672 372.024L188.172 361.524L128.172 330.024L109.672 274.524L128.172 215.024L174.672 185.024Z" fill="#383631"/>
<path d="M216.506 281.952C216.49 287.234 214.867 292.387 211.854 296.725C208.84 301.064 204.579 304.383 199.635 306.243C194.69 308.103 189.298 308.415 184.172 307.138C179.046 305.862 174.43 303.056 170.936 299.094C167.442 295.132 165.235 290.202 164.609 284.956C163.983 279.711 164.967 274.4 167.431 269.727C169.894 265.054 173.72 261.241 178.401 258.793C183.083 256.346 188.397 255.38 193.64 256.024C199.957 256.815 205.767 259.887 209.978 264.662C214.189 269.437 216.511 275.585 216.506 281.952Z" fill="#F29310"/>
<path d="M345.366 283.59C345.377 288.767 343.85 293.83 340.98 298.139C338.11 302.448 334.026 305.808 329.245 307.794C324.465 309.779 319.202 310.302 314.124 309.294C309.046 308.287 304.381 305.795 300.721 302.134C297.06 298.474 294.568 293.809 293.561 288.731C292.553 283.653 293.075 278.39 295.061 273.609C297.047 268.828 300.407 264.744 304.716 261.875C309.024 259.005 314.088 257.478 319.265 257.488C322.693 257.487 326.088 258.161 329.255 259.472C332.422 260.784 335.3 262.706 337.724 265.13C340.148 267.554 342.071 270.432 343.382 273.6C344.694 276.767 345.368 280.162 345.366 283.59Z" fill="#F29310"/>
<path d="M408.957 255.143C404.283 237.086 394.863 220.608 381.673 207.419C368.484 194.23 352.006 184.809 333.949 180.135C332.618 179.797 331.287 179.48 329.945 179.193H332.311V153.092H347.363C348.602 153.093 349.828 152.85 350.972 152.377C352.116 151.905 353.156 151.211 354.032 150.336C354.908 149.461 355.602 148.422 356.076 147.278C356.551 146.135 356.795 144.909 356.795 143.671V136.8C356.795 135.511 356.54 134.235 356.047 133.045C355.553 131.855 354.829 130.773 353.917 129.863C353.005 128.953 351.922 128.231 350.731 127.74C349.54 127.249 348.263 126.997 346.974 127H316.019C314.732 126.999 313.457 127.251 312.267 127.743C311.078 128.235 309.997 128.957 309.086 129.867C308.176 130.778 307.454 131.858 306.962 133.048C306.47 134.237 306.218 135.512 306.219 136.8V176.848H216.507V135.428C216.507 133.196 215.621 131.055 214.045 129.476C212.469 127.896 210.331 127.005 208.1 127H197.778C196.81 126.999 195.851 127.188 194.957 127.558C194.062 127.927 193.25 128.469 192.565 129.153C191.88 129.837 191.337 130.649 190.966 131.543C190.596 132.437 190.405 133.395 190.405 134.363V177.657C165.181 180.855 141.986 193.129 125.156 212.187C120.566 217.392 116.502 223.038 113.021 229.042C103.842 244.911 99.0063 262.918 99 281.25C98.9937 299.583 103.817 317.593 112.985 333.469C122.153 349.344 135.342 362.524 151.223 371.681C167.104 380.838 185.118 385.65 203.451 385.632H307.899C323.83 385.626 339.548 381.975 353.851 374.96C368.155 367.945 380.664 357.751 390.421 345.158C400.179 332.565 406.927 317.907 410.149 302.305C413.37 286.703 412.98 270.571 409.008 255.143H408.957ZM381.688 307.367C374.75 326.94 360.33 342.96 341.592 351.912C322.855 360.864 301.332 362.017 281.746 355.117C280.64 354.717 279.554 354.308 278.469 353.867C276.564 355.813 267.492 366.616 265.444 368.408C260.262 372.985 274.731 345.348 268.71 348.829H242.598C236.577 345.348 251.046 372.985 245.865 368.408C243.817 366.585 234.744 355.813 232.829 353.837C231.754 354.277 230.658 354.697 229.552 355.086C216.314 359.771 202.058 360.805 188.282 358.081C174.505 355.357 161.716 348.974 151.257 339.603C149.099 337.668 147.048 335.617 145.113 333.459C133.523 320.495 126.576 304.042 125.369 286.694C124.161 269.347 128.76 252.09 138.442 237.645C148.125 223.2 162.339 212.387 178.844 206.912C195.349 201.437 213.207 201.61 229.604 207.405C230.709 207.794 231.805 208.203 232.88 208.644C241.253 212.039 248.976 216.858 255.705 222.887C262.431 216.858 270.15 212.039 278.52 208.644C279.605 208.203 280.691 207.794 281.797 207.405C295.734 202.49 310.778 201.618 325.189 204.89C339.601 208.161 352.794 215.441 363.245 225.891C373.695 236.34 380.977 249.532 384.25 263.944C387.522 278.355 386.652 293.399 381.739 307.337L381.688 307.367Z" fill="#F7A938"/>
<path d="M309.486 305.002C315.792 305.002 320.904 299.89 320.904 293.584C320.904 287.279 315.792 282.167 309.486 282.167C303.18 282.167 298.068 287.279 298.068 293.584C298.068 299.89 303.18 305.002 309.486 305.002Z" fill="#F7A938"/>
<path d="M198.566 305.002C204.872 305.002 209.984 299.89 209.984 293.584C209.984 287.279 204.872 282.167 198.566 282.167C192.26 282.167 187.148 287.279 187.148 293.584C187.148 299.89 192.26 305.002 198.566 305.002Z" fill="#F7A938"/>
</g>
<defs>
<clipPath id="clip0_676_387">
<rect width="512" height="512" fill="white"/>
</clipPath>
</defs>
</svg>
