<svg width="192" height="192" viewBox="0 0 192 192" fill="none" xmlns="http://www.w3.org/2000/svg">
<g clip-path="url(#clip0_707_749)">
<rect width="192" height="192" fill="#232323"/>
<circle cx="96" cy="96" r="256" fill="#232323"/>
<path d="M66.9638 73.9949L90.7754 77.1769L102.297 71L126.685 77.1769L144.351 86.7231L148 107.5L141.855 131.833L115.739 140.069L93.8478 144L72.1486 140.069L49.1051 128.277L42 107.5L49.1051 85.2256L66.9638 73.9949Z" fill="#383631"/>
<path d="M81.1904 105.732C81.1842 107.713 80.5757 109.645 79.4456 111.272C78.3156 112.899 76.7175 114.144 74.8635 114.841C73.0094 115.539 70.9871 115.656 69.0649 115.177C67.1428 114.698 65.4117 113.646 64.1014 112.16C62.7912 110.675 61.9638 108.826 61.729 106.859C61.4942 104.892 61.8632 102.9 62.7869 101.148C63.7107 99.3952 65.1455 97.9653 66.901 97.0475C68.6564 96.1297 70.6495 95.7675 72.6156 96.009C74.9845 96.3058 77.1633 97.4577 78.7424 99.2483C80.3215 101.039 81.192 103.345 81.1904 105.732Z" fill="#F29310"/>
<path d="M129.513 106.346C129.517 108.288 128.944 110.186 127.868 111.802C126.792 113.418 125.261 114.678 123.468 115.423C121.675 116.167 119.701 116.363 117.797 115.985C115.893 115.608 114.144 114.673 112.771 113.3C111.398 111.928 110.464 110.178 110.086 108.274C109.708 106.37 109.904 104.396 110.649 102.603C111.393 100.811 112.653 99.2791 114.269 98.203C115.885 97.1268 117.784 96.5543 119.725 96.5581C121.011 96.5576 122.284 96.8105 123.471 97.3022C124.659 97.7939 125.738 98.5149 126.647 99.4239C127.556 100.333 128.277 101.412 128.769 102.6C129.261 103.788 129.514 105.061 129.513 106.346Z" fill="#F29310"/>
<path d="M153.359 95.6788C151.606 88.9073 148.074 82.7281 143.128 77.7821C138.182 72.8361 132.002 69.3036 125.231 67.5508C124.732 67.424 124.233 67.305 123.729 67.1975H124.617V57.4093H130.261C130.726 57.4098 131.185 57.3188 131.614 57.1415C132.044 56.9642 132.433 56.7041 132.762 56.376C133.09 56.0479 133.351 55.6582 133.529 55.2294C133.706 54.8005 133.798 54.3408 133.798 53.8765V51.2999C133.798 50.8166 133.703 50.3382 133.517 49.8918C133.332 49.4454 133.061 49.04 132.719 48.6986C132.377 48.3573 131.971 48.0868 131.524 47.9025C131.077 47.7183 130.599 47.624 130.115 47.625H118.507C118.024 47.6245 117.546 47.7192 117.1 47.9037C116.654 48.0882 116.249 48.3589 115.907 48.7002C115.566 49.0416 115.295 49.4469 115.111 49.893C114.926 50.3391 114.832 50.8172 114.832 51.2999V66.3181H81.19V50.7853C81.19 49.9485 80.8581 49.1458 80.267 48.5534C79.676 47.9609 78.8742 47.627 78.0373 47.625H74.1666C73.8037 47.6245 73.4443 47.6955 73.1088 47.8341C72.7734 47.9726 72.4686 48.1759 72.2118 48.4323C71.955 48.6887 71.7513 48.9933 71.6123 49.3285C71.4733 49.6637 71.4018 50.0231 71.4018 50.386V66.6215C61.943 67.8205 53.2447 72.4235 46.9333 79.57C45.2124 81.5221 43.6882 83.6393 42.3829 85.8906C38.9409 91.8415 37.1274 98.5942 37.125 105.469C37.1226 112.343 38.9315 119.097 42.3694 125.051C45.8074 131.004 50.7531 135.946 56.7086 139.38C62.6642 142.814 69.4193 144.619 76.294 144.612H115.462C121.436 144.61 127.331 143.241 132.694 140.61C138.058 137.979 142.749 134.157 146.408 129.434C150.067 124.712 152.598 119.215 153.806 113.364C155.014 107.514 154.868 101.464 153.378 95.6788H153.359ZM143.133 115.263C140.531 122.602 135.124 128.61 128.097 131.967C121.071 135.324 112.999 135.756 105.655 133.169C105.24 133.019 104.833 132.865 104.426 132.7C103.712 133.43 100.309 137.481 99.5413 138.153C97.5983 139.869 103.024 129.505 100.766 130.811H90.9743C88.7164 129.505 94.1423 139.869 92.1992 138.153C91.4312 137.469 88.029 133.43 87.3109 132.689C86.9077 132.854 86.4968 133.011 86.0821 133.157C81.1176 134.914 75.7717 135.302 70.6056 134.28C65.4395 133.259 60.6436 130.865 56.7215 127.351C55.9121 126.626 55.1429 125.856 54.4175 125.047C50.0711 120.186 47.4661 114.016 47.0132 107.51C46.5603 101.005 48.2851 94.5338 51.9159 89.1169C55.5467 83.6999 60.877 79.6453 67.0665 77.5921C73.256 75.5389 79.9528 75.6038 86.1013 77.7767C86.516 77.9226 86.9269 78.0762 87.3301 78.2413C90.47 79.5147 93.3659 81.3218 95.8895 83.5828C98.4117 81.3219 101.306 79.5147 104.445 78.2413C104.852 78.0762 105.259 77.9226 105.674 77.7767C110.9 75.9339 116.542 75.6069 121.946 76.8336C127.351 78.0602 132.298 80.7904 136.217 84.709C140.136 88.6275 142.866 93.5745 144.094 98.9789C145.321 104.383 144.994 110.024 143.152 115.251L143.133 115.263Z" fill="#F7A938"/>
<path d="M116.057 114.376C118.422 114.376 120.339 112.459 120.339 110.094C120.339 107.729 118.422 105.812 116.057 105.812C113.692 105.812 111.775 107.729 111.775 110.094C111.775 112.459 113.692 114.376 116.057 114.376Z" fill="#F7A938"/>
<path d="M74.4613 114.376C76.826 114.376 78.7429 112.459 78.7429 110.094C78.7429 107.729 76.826 105.812 74.4613 105.812C72.0966 105.812 70.1797 107.729 70.1797 110.094C70.1797 112.459 72.0966 114.376 74.4613 114.376Z" fill="#F7A938"/>
</g>
<defs>
<clipPath id="clip0_707_749">
<rect width="192" height="192" fill="white"/>
</clipPath>
</defs>
</svg>
