<svg width="17" height="17" viewBox="0 0 17 17" fill="none" xmlns="http://www.w3.org/2000/svg">
<g id="vuesax/linear/cpu">
<g id="cpu">
<path id="Vector" d="M6.79992 14.1667H10.1999C13.0333 14.1667 14.1666 13.0334 14.1666 10.2V6.80004C14.1666 3.96671 13.0333 2.83337 10.1999 2.83337H6.79992C3.96659 2.83337 2.83325 3.96671 2.83325 6.80004V10.2C2.83325 13.0334 3.96659 14.1667 6.79992 14.1667Z" stroke="#AB701E" stroke-linecap="round" stroke-linejoin="round"/>
<path id="Vector_2" d="M7.43742 12.0417H9.56242C11.3333 12.0417 12.0416 11.3334 12.0416 9.56254V7.43754C12.0416 5.66671 11.3333 4.95837 9.56242 4.95837H7.43742C5.66659 4.95837 4.95825 5.66671 4.95825 7.43754V9.56254C4.95825 11.3334 5.66659 12.0417 7.43742 12.0417Z" stroke="#AB701E" stroke-linecap="round" stroke-linejoin="round"/>
<path id="Vector_3" d="M5.67383 2.83329V1.41663" stroke="#AB701E" stroke-linecap="round" stroke-linejoin="round"/>
<path id="Vector_4" d="M8.5 2.83329V1.41663" stroke="#AB701E" stroke-linecap="round" stroke-linejoin="round"/>
<path id="Vector_5" d="M11.3333 2.83329V1.41663" stroke="#AB701E" stroke-linecap="round" stroke-linejoin="round"/>
<path id="Vector_6" d="M14.1667 5.66663H15.5834" stroke="#AB701E" stroke-linecap="round" stroke-linejoin="round"/>
<path id="Vector_7" d="M14.1667 8.5H15.5834" stroke="#AB701E" stroke-linecap="round" stroke-linejoin="round"/>
<path id="Vector_8" d="M14.1667 11.3334H15.5834" stroke="#AB701E" stroke-linecap="round" stroke-linejoin="round"/>
<path id="Vector_9" d="M11.3333 14.1666V15.5833" stroke="#AB701E" stroke-linecap="round" stroke-linejoin="round"/>
<path id="Vector_10" d="M8.50708 14.1666V15.5833" stroke="#AB701E" stroke-linecap="round" stroke-linejoin="round"/>
<path id="Vector_11" d="M5.67383 14.1666V15.5833" stroke="#AB701E" stroke-linecap="round" stroke-linejoin="round"/>
<path id="Vector_12" d="M1.41675 5.66663H2.83341" stroke="#AB701E" stroke-linecap="round" stroke-linejoin="round"/>
<path id="Vector_13" d="M1.41675 8.5H2.83341" stroke="#AB701E" stroke-linecap="round" stroke-linejoin="round"/>
<path id="Vector_14" d="M1.41675 11.3334H2.83341" stroke="#AB701E" stroke-linecap="round" stroke-linejoin="round"/>
</g>
</g>
</svg>
